Coordinates
version=1
nRows=38
nColumns=12
inDegrees=yes

Units are S.I. units (second, meters, Newtons, ...)
Angles are in degrees

endheader
time	SC_y	SC_z	SC_x	AC_y	AC_z	AC_x	GH_y	GH_z	GH_yy	EL_x	PS_y
       0.0              -23.92         -2.225          84.86          50.96          5.647          12.36          100.5          83.41         -58.55          13.78          115.3
   0.03168              -23.92         -2.222          84.86          50.96          5.646          12.36          100.6           83.4         -58.57          13.78          115.3
   0.06336              -23.92         -2.219          84.86          50.96          5.645          12.36          100.6          83.39         -58.58          13.79          115.3
   0.09504              -23.92         -2.215          84.85          50.96          5.644          12.36          100.6          83.38         -58.59          13.79          115.3
    0.1267              -23.92         -2.212          84.85          50.96          5.643          12.36          100.6          83.36          -58.6           13.8          115.3
    0.1584              -23.92         -2.208          84.85          50.96          5.642          12.35          100.6          83.35         -58.62          13.81          115.3
    0.1901              -23.92         -2.203          84.84          50.96          5.641          12.35          100.6          83.34         -58.63          13.81          115.3
    0.2218              -23.92         -2.199          84.84          50.96           5.64          12.35          100.6          83.32         -58.65          13.82          115.3
    0.2534              -23.91         -2.194          84.84          50.96          5.638          12.35          100.6          83.31         -58.66          13.83          115.3
    0.2851              -23.91         -2.189          84.83          50.96          5.637          12.35          100.7          83.29         -58.68          13.84          115.3
    0.3168              -23.91         -2.183          84.83          50.95          5.635          12.34          100.7          83.27          -58.7          13.85          115.3
    0.3485              -23.91         -2.177          84.82          50.95          5.633          12.34          100.7          83.25         -58.72          13.86          115.2
    0.3802              -23.91          -2.17          84.82          50.95          5.632          12.34          100.7          83.23         -58.75          13.87          115.2
    0.4118              -23.91         -2.163          84.81          50.95           5.63          12.33          100.7          83.21         -58.77          13.88          115.2
    0.4435               -23.9         -2.155          84.81          50.95          5.627          12.33          100.8          83.19          -58.8          13.89          115.2
    0.4752               -23.9         -2.147           84.8          50.95          5.625          12.33          100.8          83.16         -58.83          13.91          115.2
    0.5069               -23.9         -2.138          84.79          50.95          5.622          12.32          100.8          83.13         -58.86          13.92          115.2
    0.5385               -23.9         -2.128          84.78          50.95           5.62          12.32          100.8           83.1         -58.89          13.94          115.1
    0.5702              -23.89         -2.117          84.77          50.94          5.617          12.31          100.9          83.07         -58.93          13.96          115.1
    0.6019              -23.89         -2.106          84.77          50.94          5.613          12.31          100.9          83.03         -58.97          13.98          115.1
    0.6336              -23.89         -2.093          84.75          50.94           5.61           12.3          100.9          82.99         -59.01           14.0          115.1
    0.6653              -23.88         -2.078          84.74          50.94          5.606           12.3          101.0          82.94         -59.06          14.02          115.0
    0.6969              -23.88         -2.063          84.73          50.94          5.601          12.29          101.0          82.89         -59.12          14.05          115.0
    0.7286              -23.87         -2.045          84.72          50.93          5.596          12.28          101.1          82.84         -59.18          14.08          115.0
    0.7603              -23.87         -2.026           84.7          50.93          5.591          12.27          101.1          82.78         -59.25          14.11          114.9
     0.792              -23.86         -2.004          84.68          50.93          5.585          12.26          101.2          82.71         -59.32          14.15          114.9
    0.8237              -23.85          -1.98          84.66          50.92          5.578          12.25          101.3          82.63         -59.41          14.19          114.8
    0.8553              -23.85         -1.953          84.64          50.92           5.57          12.24          101.3          82.55          -59.5          14.23          114.8
     0.887              -23.84         -1.922          84.62          50.91          5.562          12.22          101.4          82.45         -59.61          14.28          114.7
    0.9187              -23.83         -1.887          84.59          50.91          5.552          12.21          101.5          82.34         -59.73          14.34          114.6
    0.9504              -23.82         -1.847          84.56           50.9          5.541          12.19          101.6          82.21         -59.87          14.41          114.6
    0.9821              -23.81         -1.801          84.52          50.89          5.528          12.17          101.8          82.07         -60.03          14.48          114.5
     1.014              -23.79         -1.748          84.48          50.89          5.513          12.15          101.9           81.9         -60.21          14.57          114.4
     1.045              -23.77         -1.687          84.43          50.88          5.496          12.12          102.1          81.71         -60.42          14.67          114.2
     1.077              -23.75         -1.615          84.37          50.86          5.475          12.09          102.3          81.48         -60.67          14.79          114.1
     1.109              -23.73          -1.53           84.3          50.85          5.451          12.05          102.5          81.21         -60.97          14.93          113.9
      1.14               -23.7          -1.43          84.22          50.84          5.423           12.0          102.8           80.9         -61.32           15.1          113.7
     1.172              -23.67         -1.309          84.12          50.82          5.389          11.95          103.2          80.51         -61.74           15.3          113.4
